<?xml version="1.0" encoding="UTF-8"?><svg id="Layer_1" xmlns="http://www.w3.org/2000/svg" viewBox="0 0 1233.64 223.3"><path d="m0,17.98C0,7.83,7.83,0,17.98,0c9.57,0,17.4,7.83,17.4,17.98s-7.83,17.98-17.4,17.98C7.83,35.96,0,28.13,0,17.98Zm4.35,43.79h26.39v158.92H4.35V61.77Z"/><path d="m119.76,59.16c24.94,0,47.85,12.76,58.87,31.03V6.09h26.68v214.6h-26.68v-29.87c-9.57,17.69-30.16,32.48-59.16,32.48-42.63,0-75.4-33.35-75.4-82.65S76.85,59.16,119.76,59.16Zm4.93,22.91c-29,0-53.65,21.17-53.65,58.58s24.65,59.45,53.65,59.45,53.94-21.75,53.94-59.16-24.94-58.87-53.94-58.87Z"/><path d="m296.95,223.3c-45.24,0-78.59-31.9-78.59-82.36s32.19-81.78,78.59-81.78,76.27,32.48,76.27,75.98c0,5.8-.29,10.44-.87,15.95h-127.02c2.03,32.19,24.65,49.88,51.62,49.88,23.78,0,38.86-12.18,44.66-29.29h28.42c-8.12,29-33.64,51.62-73.08,51.62Zm-51.33-93.67h100.34c.29-31.03-22.91-48.14-50.17-48.14-25.81,0-47.27,17.11-50.17,48.14Z"/><path d="m451.81,59.16c29.58,0,49.88,15.08,59.16,31.61v-29h26.68v158.92h-26.68v-29.58c-9.57,17.11-30.16,32.19-59.45,32.19-42.34,0-75.11-33.35-75.11-82.65s32.77-81.49,75.4-81.49Zm5.22,22.91c-29,0-53.65,21.17-53.65,58.58s24.65,59.45,53.65,59.45,53.94-21.75,53.94-59.16-24.94-58.87-53.94-58.87Z"/><path d="m560.56,6.09h26.39v214.6h-26.39V6.09Z"/><path d="m846.2,129.34c0-38.28-20.01-58-50.46-58s-53.94,21.46-53.94,65.54v83.81h-12.76v-91.35c0-38.28-20.01-58-50.46-58s-53.94,21.46-53.94,65.54v83.81h-13.05V63.22h13.05v34.22c9.28-25.52,31.03-37.41,55.97-37.41,27.26,0,50.46,13.92,58.29,44.08,7.83-30.16,31.61-44.08,58.87-44.08,33.64,0,61.19,21.17,61.19,68.44v92.22h-12.76v-91.35Z"/><path d="m951.47,61.19c34.8,0,58,19.43,66.7,43.21v-41.18h13.05v157.47h-13.05v-41.47c-8.7,24.07-32.19,43.79-66.7,43.79-44.08,0-75.98-31.61-75.98-81.2s31.9-80.62,75.98-80.62Zm1.74,11.31c-37.99,0-64.38,25.81-64.38,69.31s26.39,69.6,64.38,69.6,64.96-26.97,64.96-69.6-28.13-69.31-64.96-69.31Z"/><path d="m1190.14,220.69h-13.05v-34.22c-8.99,24.65-31.9,36.83-57.71,36.83-35.09,0-63.8-20.88-63.8-68.44V63.22h12.76v90.77c0,38.57,21.17,58,52.78,58s55.97-20.59,55.97-64.38V63.22h13.05v157.47Z"/><path d="m1211.6,16.82c0-6.67,4.93-11.31,11.02-11.31s11.02,4.64,11.02,11.31-4.93,11.31-11.02,11.31-11.02-4.35-11.02-11.31Zm4.35,46.4h13.05v157.47h-13.05V63.22Z"/></svg>