<?xml version="1.0" encoding="UTF-8"?><svg id="Layer_1" xmlns="http://www.w3.org/2000/svg" viewBox="0 0 1211.48 183.9"><path d="m0,19.25C0,12.29,5.33,7.42,11.83,7.42s11.83,4.87,11.83,11.83-5.33,12.06-11.83,12.06S0,26.21,0,19.25Zm3.71,35.94h16.23v126.62H3.71V55.19Z"/><path d="m110.15,53.34c22.73,0,41.74,12.52,49.86,29.22V10.2h16.23v171.61h-16.23v-28.29c-7.42,16.7-25.05,30.15-50.09,30.15-34.79,0-60.53-25.74-60.53-65.4s25.74-64.93,60.76-64.93Zm2.78,14.15c-26.67,0-47.08,18.55-47.08,50.79s20.41,51.25,47.08,51.25,47.08-19.48,47.08-51.02-21.1-51.02-47.08-51.02Z"/><path d="m268.08,183.67c-35.94,0-62.15-25.05-62.15-65.17s25.74-65.16,62.15-65.16,59.83,26.44,59.83,58.67c0,5.1,0,8.35-.46,12.75h-105.05c1.39,29.68,22.03,45.22,45.68,45.22,21.57,0,36.18-11.36,40.81-28.29h17.16c-5.8,23.89-26.21,41.97-57.98,41.97Zm-45.68-72.12h89.05c.7-29.45-20.64-44.29-44.06-44.29s-43.13,14.84-44.99,44.29Z"/><path d="m410.7,53.34c25.51,0,42.9,13.68,50.09,29.68v-27.83h16.23v126.62h-16.23v-28.06c-7.42,16.23-25.05,29.92-50.32,29.92-34.55,0-60.29-25.74-60.29-65.4s25.74-64.93,60.53-64.93Zm3.01,14.15c-26.67,0-47.08,18.55-47.08,50.79s20.41,51.25,47.08,51.25,47.08-19.48,47.08-51.02-21.1-51.02-47.08-51.02Z"/><path d="m514.13,10.2h16.23v171.61h-16.23V10.2Z"/><path d="m744.41,110.85c0-20.41-11.36-31.07-28.52-31.07s-28.76,10.67-28.76,31.07v70.96h-32.47v-70.96c0-20.41-11.36-31.07-28.52-31.07s-28.99,10.67-28.99,31.07v70.96h-32.47V53.34h32.47v15.54c8.12-10.67,21.8-17.39,37.8-17.39,19.94,0,36.41,8.58,45.22,24.58,8.35-14.61,25.28-24.58,44.06-24.58,30.84,0,52.64,19.48,52.64,54.96v75.37h-32.47v-70.96Z"/><path d="m858.05,51.25c20.64,0,34.79,9.74,42.44,20.41v-18.32h32.7v128.47h-32.7v-18.78c-7.65,11.13-22.26,20.87-42.67,20.87-32.47,0-58.44-26.67-58.44-66.79s25.97-65.86,58.67-65.86Zm8.35,28.52c-17.39,0-33.86,12.99-33.86,37.34s16.47,38.26,33.86,38.26,34.09-13.45,34.09-37.8-16.23-37.8-34.09-37.8Z"/><path d="m1086.25,181.81h-32.7v-16.23c-8.12,10.9-22.26,17.86-38.26,17.86-29.92,0-51.48-19.48-51.48-54.73V53.34h32.47v70.73c0,20.64,11.36,31.77,28.52,31.77s28.76-11.13,28.76-31.77V53.34h32.7v128.47Z"/><path d="m1114.77,19.02c0-10.67,8.35-19.02,19.94-19.02s19.94,8.35,19.94,19.02-8.58,19.02-19.94,19.02-19.94-8.35-19.94-19.02Zm3.48,34.32h32.47v128.47h-32.47V53.34Z"/><path d="m1194.78,183.44c-9.51,0-16.93-7.42-16.93-16.93s7.42-16.93,16.93-16.93,16.7,7.42,16.7,16.93-7.42,16.93-16.7,16.93Z"/></svg>